<?xml version="1.0" encoding="UTF-8"?>
<svg id="Layer_1" data-name="Layer 1" xmlns="http://www.w3.org/2000/svg" xmlns:xlink="http://www.w3.org/1999/xlink" viewBox="0 0 28.02 32">
  <defs>
    <style>
      .cls-1 {
        fill: url(#Degradado_sin_nombre_7-3);
      }

      .cls-2 {
        fill: url(#Degradado_sin_nombre_7-7);
      }

      .cls-3 {
        fill: url(#Degradado_sin_nombre_6);
      }

      .cls-4 {
        fill: url(#Degradado_sin_nombre_7-2);
      }

      .cls-5 {
        fill: url(#Degradado_sin_nombre_11);
      }

      .cls-6 {
        fill: url(#Degradado_sin_nombre_7-6);
      }

      .cls-7 {
        fill: url(#Degradado_sin_nombre_10-2);
      }

      .cls-8 {
        fill: url(#Degradado_sin_nombre_10);
      }

      .cls-9 {
        fill: url(#Degradado_sin_nombre_7-4);
      }

      .cls-10 {
        fill: url(#Degradado_sin_nombre_7-8);
      }

      .cls-11 {
        fill: url(#Degradado_sin_nombre_8);
      }

      .cls-12 {
        fill: url(#Degradado_sin_nombre_7-5);
      }

      .cls-13 {
        fill: url(#Degradado_sin_nombre_7);
      }

      .cls-14 {
        fill: url(#Degradado_sin_nombre_12);
      }
    </style>
    <linearGradient id="Degradado_sin_nombre_10" data-name="Degradado sin nombre 10" x1="12.6" y1="18.06" x2="15.01" y2="22.23" gradientUnits="userSpaceOnUse">
      <stop offset="0" stop-color="#ffb800"/>
      <stop offset="1" stop-color="#ffef00"/>
    </linearGradient>
    <linearGradient id="Degradado_sin_nombre_12" data-name="Degradado sin nombre 12" x1="4.52" y1="12.96" x2="7.56" y2="18.22" gradientUnits="userSpaceOnUse">
      <stop offset=".13" stop-color="#ff5a19"/>
      <stop offset="1" stop-color="#ffcb00"/>
    </linearGradient>
    <linearGradient id="Degradado_sin_nombre_7" data-name="Degradado sin nombre 7" x1="19.14" y1="1.12" x2="20.38" y2="1.12" gradientUnits="userSpaceOnUse">
      <stop offset="0" stop-color="#ffe900"/>
      <stop offset="1" stop-color="#ffef00"/>
    </linearGradient>
    <linearGradient id="Degradado_sin_nombre_7-2" data-name="Degradado sin nombre 7" x1="16.62" y1="2.57" x2="17.85" y2="2.57" xlink:href="#Degradado_sin_nombre_7"/>
    <linearGradient id="Degradado_sin_nombre_7-3" data-name="Degradado sin nombre 7" x1="18.37" y1="3.62" x2="19.61" y2="3.62" xlink:href="#Degradado_sin_nombre_7"/>
    <linearGradient id="Degradado_sin_nombre_7-4" data-name="Degradado sin nombre 7" x1="15.9" y1="5.01" x2="17.14" y2="5.01" xlink:href="#Degradado_sin_nombre_7"/>
    <linearGradient id="Degradado_sin_nombre_11" data-name="Degradado sin nombre 11" x1="0" y1="8.63" x2="15.29" y2="8.63" gradientUnits="userSpaceOnUse">
      <stop offset="0" stop-color="#ff8f05"/>
      <stop offset="1" stop-color="#ffef00"/>
    </linearGradient>
    <linearGradient id="Degradado_sin_nombre_10-2" data-name="Degradado sin nombre 10" x1="15.14" y1="13.81" x2="12.94" y2="9.99" xlink:href="#Degradado_sin_nombre_10"/>
    <linearGradient id="Degradado_sin_nombre_8" data-name="Degradado sin nombre 8" x1="28.02" y1="17.51" x2="16.75" y2="17.51" gradientUnits="userSpaceOnUse">
      <stop offset="0" stop-color="#ff8f05"/>
      <stop offset="1" stop-color="#ffcf00"/>
    </linearGradient>
    <linearGradient id="Degradado_sin_nombre_7-5" data-name="Degradado sin nombre 7" x1="7.73" y1="30.88" x2="8.96" y2="30.88" xlink:href="#Degradado_sin_nombre_7"/>
    <linearGradient id="Degradado_sin_nombre_7-6" data-name="Degradado sin nombre 7" x1="10.28" y1="29.47" x2="11.5" y2="29.47" xlink:href="#Degradado_sin_nombre_7"/>
    <linearGradient id="Degradado_sin_nombre_7-7" data-name="Degradado sin nombre 7" x1="8.54" y1="28.4" x2="9.76" y2="28.4" xlink:href="#Degradado_sin_nombre_7"/>
    <linearGradient id="Degradado_sin_nombre_7-8" data-name="Degradado sin nombre 7" x1="11.03" y1="27.04" x2="12.25" y2="27.04" xlink:href="#Degradado_sin_nombre_7"/>
    <linearGradient id="Degradado_sin_nombre_6" data-name="Degradado sin nombre 6" x1="25.95" y1="19.92" x2="11.77" y2="28.11" gradientUnits="userSpaceOnUse">
      <stop offset="0" stop-color="#ff5a19"/>
      <stop offset=".92" stop-color="#ffef00"/>
    </linearGradient>
  </defs>
  <g>
    <path class="cls-8" d="m18.12,20.43l-2.19,1.27c-1.03.6-2.31.6-3.34,0l-3.1-1.82,3.85-2.23,4.78,2.79Z"/>
    <path class="cls-14" d="m10.95,16.25l-3.83,2.23-5.77-3.39c-.08-.04-.16-.1-.23-.16l3.81-2.19,6.02,3.51Z"/>
    <g>
      <polygon class="cls-13" points="20.38 1.57 19.18 2.25 19.14 .68 20.34 0 20.38 1.57"/>
      <polygon class="cls-4" points="17.85 3.01 16.66 3.69 16.62 2.13 17.81 1.45 17.85 3.01"/>
      <polygon class="cls-1" points="19.61 4.06 18.41 4.74 18.37 3.18 19.56 2.49 19.61 4.06"/>
      <polygon class="cls-9" points="17.14 5.45 15.94 6.14 15.9 4.57 17.09 3.89 17.14 5.45"/>
    </g>
    <path class="cls-5" d="m1.35,10.39c-.83.49-1.35,1.38-1.35,2.35,0,.87.43,1.69,1.12,2.19l12.97-7.48c.75-.43,1.2-1.22,1.2-2.09v-3.02L1.35,10.39Zm8.86-1.08l-.04-1.57,1.2-.68.04,1.57-1.2.68Zm.72-2.44l-.04-1.57,1.2-.68.04,1.57-1.2.68Zm1.75,1.05l-.04-1.57,1.2-.68.04,1.57-1.2.68Zm.77-2.49l-.04-1.57,1.2-.68.04,1.57-1.2.68Z"/>
  </g>
  <g>
    <path class="cls-7" d="m18.13,12.07l-3.79,2.2-4.4-2.55,2.16-1.24c1.02-.59,2.28-.58,3.3.01l2.72,1.58Z"/>
    <path class="cls-11" d="m28.02,19.37c0,.87-.42,1.69-1.12,2.19l-10.15-5.89,3.79-2.2,6.13,3.55c.83.49,1.35,1.38,1.35,2.35Z"/>
    <g>
      <polygon class="cls-12" points="7.73 30.43 8.94 29.77 8.96 31.33 7.76 32 7.73 30.43"/>
      <polygon class="cls-6" points="10.28 29.02 11.48 28.36 11.5 29.92 10.3 30.59 10.28 29.02"/>
      <polygon class="cls-2" points="8.54 27.95 9.74 27.28 9.76 28.85 8.56 29.52 8.54 27.95"/>
      <polygon class="cls-10" points="11.03 26.59 12.23 25.92 12.25 27.49 11.05 28.15 11.03 26.59"/>
    </g>
    <path class="cls-3" d="m23.11,19.35l-8.82,5.09c-.97.56-1.56,1.59-1.56,2.71v2.61l13.94-8.05c.08-.04.16-.1.23-.16l-3.79-2.2Zm-9.58,9.55l-.02-1.57,1.2-.67.02,1.57-1.2.67Zm.8-2.48l-.02-1.57,1.2-.67.02,1.57-1.2.67Zm1.74,1.07l-.02-1.57,1.2-.67.02,1.57-1.2.67Zm.75-2.43l-.02-1.57,1.2-.67.02,1.57-1.2.67Z"/>
  </g>
</svg>